<svg version="1.1" preserveAspectRatio="none" xmlns="http://www.w3.org/2000/svg" width="500" height="500" viewBox="0 0 500 500"><rect width="100%" height="100%" fill="#0F222D" fill-opacity="1"/><svg viewBox="119.3725 -146.1322 407.5515 331.0211" width="333" height="270.4689500590723" x="83.5px" y="114.7655px" xmlns="http://www.w3.org/2000/svg" xmlns:xlink="http://www.w3.org/1999/xlink" preserveAspectRatio="none"><defs></defs><style>.aDFQBjvS2colors-3 {fill:#21303A;fill-opacity:1;}.aDFQBjvS2colors-4 {fill:#51819E;fill-opacity:1;}.aDFQBjvS2colors-5 {fill:#064B75;fill-opacity:1;}.aDFQBjvS2colors-6 {fill:#ACA58C;fill-opacity:1;}.aDFQBjvS2colors-7 {fill:#3E5563;fill-opacity:1;}.companyName {fill:#EBE7D9;fill-opacity:1;}.icon1 {fill:#FFF5D0;fill-opacity:1;}.icon2 {fill:#BA3521;fill-opacity:1;}.icon3 {fill:#F55139;fill-opacity:1;}.icon3-str {stroke:#F55139;stroke-opacity:1;}.text {fill:#EBE7D9;fill-opacity:1;}</style><g opacity="1" transform="rotate(0 218.2596 164.0543)">
<svg width="209.7773" height="20.8346" x="218.2596" y="164.0543" version="1.1" preserveAspectRatio="none" viewBox="4.16 -31 395.04 39.24">
  <g transform="matrix(1 0 0 1 0 0)" class="text"><path id="id-6izo4zJp18" d="M4.16-28.92L22.96-28.92L22.96-25.20L8.04-25.20L8.04-16.40L21.36-16.40L21.36-12.68L8.04-12.68L8.04-3.76L23.52-3.76L23.52 0L4.16 0L4.16-28.92Z M31.76-31L35.48-31L35.48 0L31.76 0L31.76-31Z M52.12-2.80Q54.20-2.80 56.16-4.24L56.16-4.24L57.88-1.48Q56.56-0.60 55.02-0.10Q53.48 0.40 52.04 0.40L52.04 0.40Q49.28 0.40 47.22-0.74Q45.16-1.88 44.04-3.88Q42.92-5.88 42.92-8.40L42.92-8.40Q42.92-10.84 44.14-12.86Q45.36-14.88 47.48-16.06Q49.60-17.24 52.12-17.24L52.12-17.24Q55.36-17.24 57.54-15.34Q59.72-13.44 60.52-10.04L60.52-10.04L47.40-5.44Q48.12-4.20 49.34-3.50Q50.56-2.80 52.12-2.80L52.12-2.80ZM51.84-14.28Q49.56-14.28 48.08-12.68Q46.60-11.08 46.60-8.60L46.60-8.60Q46.60-8 46.64-7.68L46.64-7.68L56.28-11.24Q55.68-12.60 54.58-13.44Q53.48-14.28 51.84-14.28L51.84-14.28Z M81.64-16.56L85.04-16.56L85.04 0.12Q85.04 2.40 83.88 4.24Q82.72 6.08 80.58 7.16Q78.44 8.24 75.56 8.24L75.56 8.24Q73.04 8.24 71.22 7.40Q69.40 6.56 67.56 4.92L67.56 4.92L69.76 2.36Q71.12 3.64 72.48 4.30Q73.84 4.96 75.48 4.96L75.48 4.96Q78.24 4.96 79.74 3.64Q81.24 2.32 81.28 0.08L81.28 0.08L81.32-3.04Q80.40-1.48 78.62-0.54Q76.84 0.40 74.52 0.40L74.52 0.40Q72.24 0.40 70.32-0.76Q68.40-1.92 67.26-3.92Q66.12-5.92 66.12-8.36L66.12-8.36Q66.12-10.88 67.30-12.90Q68.48-14.92 70.48-16.08Q72.48-17.24 74.76-17.24L74.76-17.24Q76.88-17.24 78.68-16.40Q80.48-15.56 81.36-14.24L81.36-14.24L81.64-16.56ZM75.60-2.68Q77.72-2.68 79.28-3.84Q80.84-5 81.32-6.88L81.32-6.88L81.32-10.16Q80.76-11.96 79.20-13.06Q77.64-14.16 75.60-14.16L75.60-14.16Q73.16-14.16 71.52-12.56Q69.88-10.96 69.88-8.48L69.88-8.48Q69.88-6.88 70.64-5.56Q71.40-4.24 72.72-3.46Q74.04-2.68 75.60-2.68L75.60-2.68Z M107.48-16.56L110.92-16.56L110.92 0L107.20 0L107.20-2.72Q106.32-1.56 104.64-0.58Q102.96 0.40 100.84 0.40L100.84 0.40Q98.48 0.40 96.58-0.62Q94.68-1.64 93.58-3.60Q92.48-5.56 92.48-8.28L92.48-8.28Q92.48-11 93.62-13.02Q94.76-15.04 96.70-16.14Q98.64-17.24 101-17.24L101-17.24Q103.12-17.24 104.68-16.32Q106.24-15.40 107.20-13.92L107.20-13.92L107.48-16.56ZM101.84-2.68Q103.88-2.68 105.34-3.82Q106.80-4.96 107.20-6.92L107.20-6.92L107.20-10.20Q106.72-11.96 105.20-13.06Q103.68-14.16 101.72-14.16L101.72-14.16Q100.24-14.16 98.98-13.44Q97.72-12.72 96.98-11.42Q96.24-10.12 96.24-8.48L96.24-8.48Q96.24-6.88 97-5.56Q97.76-4.24 99.04-3.46Q100.32-2.68 101.84-2.68L101.84-2.68Z M130.08-17.20Q132.40-17.20 133.92-15.82Q135.44-14.44 135.48-12.24L135.48-12.24L135.48 0L131.72 0L131.72-10.96Q131.64-12.36 130.88-13.16Q130.12-13.96 128.60-14L128.60-14Q126.40-14 124.96-12.24Q123.52-10.48 123.52-7.76L123.52-7.76L123.52 0L119.80 0L119.80-16.56L123.16-16.56L123.40-13.36Q124.28-15.16 126.04-16.18Q127.80-17.20 130.08-17.20L130.08-17.20Z M157.76-1.56Q156.64-0.64 155.10-0.12Q153.56 0.40 151.96 0.40L151.96 0.40Q149.28 0.40 147.22-0.68Q145.16-1.76 144.02-3.74Q142.88-5.72 142.88-8.32L142.88-8.32Q142.88-10.88 144.08-12.86Q145.28-14.84 147.28-15.92Q149.28-17 151.60-17L151.60-17Q155.40-17 157.88-14.92L157.88-14.92L156-12.48Q155.20-13.08 154.16-13.50Q153.12-13.92 151.92-13.92L151.92-13.92Q150.44-13.92 149.22-13.18Q148-12.44 147.30-11.16Q146.60-9.88 146.60-8.32L146.60-8.32Q146.60-6.76 147.34-5.48Q148.08-4.20 149.36-3.44Q150.64-2.68 152.28-2.68L152.28-2.68Q154.32-2.68 155.84-3.88L155.84-3.88L157.76-1.56Z M172.72-2.80Q174.80-2.80 176.76-4.24L176.76-4.24L178.48-1.48Q177.16-0.60 175.62-0.10Q174.08 0.40 172.64 0.40L172.64 0.40Q169.88 0.40 167.82-0.74Q165.76-1.88 164.64-3.88Q163.52-5.88 163.52-8.40L163.52-8.40Q163.52-10.84 164.74-12.86Q165.96-14.88 168.08-16.06Q170.20-17.24 172.72-17.24L172.72-17.24Q175.96-17.24 178.14-15.34Q180.32-13.44 181.12-10.04L181.12-10.04L168.00-5.44Q168.72-4.20 169.94-3.50Q171.16-2.80 172.72-2.80L172.72-2.80ZM172.44-14.28Q170.16-14.28 168.68-12.68Q167.20-11.08 167.20-8.60L167.20-8.60Q167.20-8 167.24-7.68L167.24-7.68L176.88-11.24Q176.28-12.60 175.18-13.44Q174.08-14.28 172.44-14.28L172.44-14.28Z M224.56 0L220.04 0L213.24-10.68Q212.92-10.64 212.28-10.64L212.28-10.64L208.00-10.64L208.00 0L204.12 0L204.12-28.92L211.84-28.92Q214.80-28.92 217.12-27.88Q219.44-26.84 220.76-24.82Q222.08-22.80 222.08-19.96L222.08-19.96Q222.08-17.28 220.90-15.04Q219.72-12.80 217.28-11.64L217.28-11.64L224.56 0ZM212.20-14.40Q215.32-14.40 216.70-16.04Q218.08-17.68 218.08-19.80L218.08-19.80Q218.08-21.08 217.50-22.32Q216.92-23.56 215.66-24.38Q214.40-25.20 212.48-25.20L212.48-25.20L208.00-25.20L208.00-14.40L212.20-14.40Z M239.24-2.80Q241.32-2.80 243.28-4.24L243.28-4.24L245.00-1.48Q243.68-0.60 242.14-0.10Q240.60 0.40 239.16 0.40L239.16 0.40Q236.40 0.40 234.34-0.74Q232.28-1.88 231.16-3.88Q230.04-5.88 230.04-8.40L230.04-8.40Q230.04-10.84 231.26-12.86Q232.48-14.88 234.60-16.06Q236.72-17.24 239.24-17.24L239.24-17.24Q242.48-17.24 244.66-15.34Q246.84-13.44 247.64-10.04L247.64-10.04L234.52-5.44Q235.24-4.20 236.46-3.50Q237.68-2.80 239.24-2.80L239.24-2.80ZM238.96-14.28Q236.68-14.28 235.20-12.68Q233.72-11.08 233.72-8.60L233.72-8.60Q233.72-8 233.76-7.68L233.76-7.68L243.40-11.24Q242.80-12.60 241.70-13.44Q240.60-14.28 238.96-14.28L238.96-14.28Z M268.24-31L271.96-31L271.96 0L268.20 0L268.20-2.60Q267.00-1.20 265.26-0.40Q263.52 0.40 261.44 0.40L261.44 0.40Q259.12 0.40 257.24-0.72Q255.36-1.84 254.30-3.86Q253.24-5.88 253.24-8.52L253.24-8.52Q253.24-11.20 254.36-13.18Q255.48-15.16 257.44-16.20Q259.40-17.24 261.88-17.24L261.88-17.24Q263.76-17.24 265.50-16.46Q267.24-15.68 268.24-14.32L268.24-14.32L268.24-31ZM262.60-2.80Q264.76-2.80 266.26-3.96Q267.76-5.12 268.20-7.08L268.20-7.08L268.20-10.20Q267.72-12 266.16-13.14Q264.60-14.28 262.60-14.28L262.60-14.28Q261.08-14.28 259.80-13.54Q258.52-12.80 257.76-11.50Q257.00-10.20 257.00-8.56L257.00-8.56Q257.00-6.96 257.76-5.64Q258.52-4.32 259.80-3.56Q261.08-2.80 262.60-2.80L262.60-2.80Z M288.56-2.80Q290.64-2.80 292.60-4.24L292.60-4.24L294.32-1.48Q293.00-0.60 291.46-0.10Q289.92 0.40 288.48 0.40L288.48 0.40Q285.72 0.40 283.66-0.74Q281.60-1.88 280.48-3.88Q279.36-5.88 279.36-8.40L279.36-8.40Q279.36-10.84 280.58-12.86Q281.80-14.88 283.92-16.06Q286.04-17.24 288.56-17.24L288.56-17.24Q291.80-17.24 293.98-15.34Q296.16-13.44 296.96-10.04L296.96-10.04L283.84-5.44Q284.56-4.20 285.78-3.50Q287.00-2.80 288.56-2.80L288.56-2.80ZM288.28-14.28Q286.00-14.28 284.52-12.68Q283.04-11.08 283.04-8.60L283.04-8.60Q283.04-8 283.08-7.68L283.08-7.68L292.72-11.24Q292.12-12.60 291.02-13.44Q289.92-14.28 288.28-14.28L288.28-14.28Z M305.36 0L305.36-13.24L302.52-13.24L302.52-16.60L305.36-16.60L305.36-23.56Q305.36-27.16 307.00-29.08Q308.64-31 311.80-31L311.80-31Q312.68-31 313.68-30.74Q314.68-30.48 315.44-30L315.44-30L313.84-27.28Q313.24-27.92 312.16-27.92L312.16-27.92Q310.64-27.92 309.86-26.88Q309.08-25.84 309.08-23.52L309.08-23.52L309.08-16.60L314.36-16.60L314.36-13.24L309.08-13.24L309.08 0L305.36 0Z M321.60-16.56L325.32-16.56L325.32 0L321.60 0L321.60-16.56ZM321.32-22.52Q321.32-23.40 322-24Q322.68-24.60 323.56-24.60L323.56-24.60Q324.44-24.60 325.10-24Q325.76-23.40 325.76-22.52L325.76-22.52Q325.76-21.64 325.10-21.04Q324.44-20.44 323.56-20.44L323.56-20.44Q322.68-20.44 322-21.04Q321.32-21.64 321.32-22.52L321.32-22.52Z M344.48-17.20Q346.80-17.20 348.32-15.82Q349.84-14.44 349.88-12.24L349.88-12.24L349.88 0L346.12 0L346.12-10.96Q346.04-12.36 345.28-13.16Q344.52-13.96 343-14L343-14Q340.80-14 339.36-12.24Q337.92-10.48 337.92-7.76L337.92-7.76L337.92 0L334.20 0L334.20-16.56L337.56-16.56L337.80-13.36Q338.68-15.16 340.44-16.18Q342.20-17.20 344.48-17.20L344.48-17.20Z M366.48-2.80Q368.56-2.80 370.52-4.24L370.52-4.24L372.24-1.48Q370.92-0.60 369.38-0.10Q367.84 0.40 366.40 0.40L366.40 0.40Q363.64 0.40 361.58-0.74Q359.52-1.88 358.40-3.88Q357.28-5.88 357.28-8.40L357.28-8.40Q357.28-10.84 358.50-12.86Q359.72-14.88 361.84-16.06Q363.96-17.24 366.48-17.24L366.48-17.24Q369.72-17.24 371.90-15.34Q374.08-13.44 374.88-10.04L374.88-10.04L361.76-5.44Q362.48-4.20 363.70-3.50Q364.92-2.80 366.48-2.80L366.48-2.80ZM366.20-14.28Q363.92-14.28 362.44-12.68Q360.96-11.08 360.96-8.60L360.96-8.60Q360.96-8 361.00-7.68L361.00-7.68L370.64-11.24Q370.04-12.60 368.94-13.44Q367.84-14.28 366.20-14.28L366.20-14.28Z M395.48-31L399.20-31L399.20 0L395.44 0L395.44-2.60Q394.24-1.20 392.50-0.40Q390.76 0.40 388.68 0.40L388.68 0.40Q386.36 0.40 384.48-0.72Q382.60-1.84 381.54-3.86Q380.48-5.88 380.48-8.52L380.48-8.52Q380.48-11.20 381.60-13.18Q382.72-15.16 384.68-16.20Q386.64-17.24 389.12-17.24L389.12-17.24Q391.00-17.24 392.74-16.46Q394.48-15.68 395.48-14.32L395.48-14.32L395.48-31ZM389.84-2.80Q392.00-2.80 393.50-3.96Q395.00-5.12 395.44-7.08L395.44-7.08L395.44-10.20Q394.96-12 393.40-13.14Q391.84-14.28 389.84-14.28L389.84-14.28Q388.32-14.28 387.04-13.54Q385.76-12.80 385.00-11.50Q384.24-10.20 384.24-8.56L384.24-8.56Q384.24-6.96 385.00-5.64Q385.76-4.32 387.04-3.56Q388.32-2.80 389.84-2.80L389.84-2.80Z"/></g>
</svg>
</g><g opacity="1" transform="rotate(0 119.3725 120.0543)">
<svg width="407.5515" height="24" x="119.3725" y="120.0543" version="1.1" preserveAspectRatio="none" viewBox="2.4805 -32.4023 557.7148 32.831999999999994">
  <g transform="matrix(1 0 0 1 0 0)" class="companyName"><path id="id-D6z1nYkh17" d="M2.48-15.45L2.48-15.45Q2.48-18.71 3.71-21.53Q4.94-24.36 7.28-26.44Q9.61-28.52 12.98-29.71Q16.35-30.90 20.61-30.90L20.61-30.90Q24.34-30.90 27.45-30.15Q30.57-29.39 33.24-27.85L33.24-27.85L30.39-23.16Q29.59-23.69 28.54-24.10Q27.50-24.51 26.32-24.79Q25.14-25.08 23.88-25.23Q22.62-25.39 21.39-25.39L21.39-25.39Q18.42-25.39 16.09-24.66Q13.77-23.93 12.18-22.61Q10.59-21.29 9.76-19.46Q8.93-17.64 8.93-15.45L8.93-15.45Q8.93-13.18 9.79-11.29Q10.64-9.39 12.28-8.02Q13.91-6.64 16.26-5.87Q18.61-5.10 21.58-5.10L21.58-5.10Q22.93-5.10 24.26-5.29Q25.59-5.49 26.83-5.83Q28.07-6.17 29.22-6.65Q30.37-7.13 31.37-7.70L31.37-7.70L34.22-3.01Q31.72-1.41 28.44-0.50Q25.16 0.41 21.46 0.41L21.46 0.41Q16.76 0.41 13.20-0.81Q9.65-2.03 7.27-4.17Q4.88-6.31 3.68-9.21Q2.48-12.11 2.48-15.45Z M39.88-12.97L39.88-30.53L46.07-30.53L46.07-13.71Q46.07-11.64 46.64-10.03Q47.21-8.42 48.33-7.30Q49.45-6.19 51.11-5.62Q52.77-5.04 54.98-5.04L54.98-5.04Q57.17-5.04 58.84-5.62Q60.51-6.19 61.63-7.30Q62.75-8.42 63.32-10.03Q63.89-11.64 63.89-13.71L63.89-13.71L63.89-30.53L70.08-30.53L70.08-12.97Q70.08-9.96 69.06-7.50Q68.05-5.04 66.11-3.28Q64.18-1.52 61.38-0.57Q58.57 0.39 54.98 0.39L54.98 0.39Q51.39 0.39 48.58-0.57Q45.78-1.52 43.85-3.28Q41.91-5.04 40.90-7.50Q39.88-9.96 39.88-12.97L39.88-12.97Z M77.62 0L77.62-30.53L93.14-30.53Q96.66-30.53 99.24-29.79Q101.82-29.06 103.52-27.68Q105.21-26.29 106.04-24.30Q106.88-22.30 106.88-19.79L106.88-19.79Q106.88-18.09 106.46-16.55Q106.05-15.02 105.21-13.73Q104.36-12.44 103.07-11.44Q101.78-10.43 100.04-9.77L100.04-9.77L106.68 0L99.10 0L93.36-8.67L93.18-8.67L83.81-8.69L83.81 0L77.62 0ZM83.81-14.04L93.30-14.04Q95.06-14.04 96.38-14.45Q97.70-14.86 98.58-15.61Q99.47-16.35 99.91-17.41Q100.35-18.48 100.35-19.79L100.35-19.79Q100.35-22.34 98.59-23.74Q96.84-25.14 93.30-25.14L93.30-25.14L83.81-25.14L83.81-14.04Z M110.27 0L124.61-30.53L131.17-30.53L145.94 0L139.43 0L136.99-5.14L119.16-5.14L116.80 0L110.27 0ZM121.52-10.23L134.55-10.23L127.95-24.10L121.52-10.23Z M159.88 0L159.88-25.10L148.61-25.10L148.61-30.53L177.34-30.53L177.34-25.10L166.07-25.10L166.07 0L159.88 0Z M183.95 0L183.95-30.53L209.94-30.53L209.94-25.10L190.14-25.10L190.14-19.00L207.68-19.00L207.68-13.91L190.14-13.91L190.14-5.41L210.35-5.41L210.35 0L183.95 0Z M217.23 0L217.23-30.53L228.42-30.53Q233.32-30.53 236.93-29.47Q240.55-28.42 242.92-26.46Q245.29-24.49 246.46-21.69Q247.62-18.89 247.62-15.39L247.62-15.39Q247.62-12.07 246.46-9.25Q245.31-6.43 242.95-4.37Q240.59-2.30 236.97-1.14Q233.36 0.02 228.46 0.02L228.46 0.02L217.23 0ZM223.42-5.35L229.94-5.35Q232.71-5.35 234.80-6.06Q236.89-6.78 238.29-8.09Q239.69-9.39 240.39-11.25Q241.09-13.11 241.09-15.39L241.09-15.39Q241.09-17.64 240.39-19.44Q239.69-21.25 238.29-22.51Q236.89-23.77 234.80-24.45Q232.71-25.14 229.94-25.14L229.94-25.14L223.42-25.14L223.42-5.35Z M267.11 0L267.11-30.53L294.41-30.53L294.41-25.10L273.30-25.10L273.30-17.11L291.23-17.11L291.23-12.01L273.30-12.01L273.30 0L267.11 0Z M296.46 0L310.80-30.53L317.36-30.53L332.13 0L325.63 0L323.18-5.14L305.35-5.14L302.99 0L296.46 0ZM307.71-10.23L320.74-10.23L314.14-24.10L307.71-10.23Z M335-4.06L338.30-9.08Q339.96-8.14 341.67-7.39Q343.38-6.64 345.21-6.12Q347.05-5.61 349.07-5.33Q351.09-5.06 353.38-5.06L353.38-5.06Q356.13-5.06 358.07-5.42Q360-5.78 361.22-6.42Q362.44-7.05 363.00-7.93Q363.55-8.81 363.55-9.84L363.55-9.84Q363.55-11.50 362.17-12.47Q360.78-13.44 357.89-13.44L357.89-13.44Q356.62-13.44 355.21-13.27Q353.81-13.11 352.37-12.91Q350.94-12.71 349.54-12.55Q348.14-12.38 346.91-12.38L346.91-12.38Q344.86-12.38 342.98-12.91Q341.09-13.44 339.64-14.49Q338.18-15.55 337.32-17.13Q336.46-18.71 336.46-20.82L336.46-20.82Q336.46-22.07 336.81-23.30Q337.15-24.53 337.90-25.65Q338.65-26.78 339.84-27.74Q341.04-28.71 342.72-29.41Q344.41-30.12 346.63-30.52Q348.85-30.92 351.68-30.92L351.68-30.92Q353.73-30.92 355.80-30.69Q357.87-30.47 359.83-30.06Q361.80-29.65 363.61-29.07Q365.43-28.50 366.99-27.79L366.99-27.79L364.28-22.79Q362.99-23.36 361.50-23.84Q360.02-24.32 358.40-24.67Q356.78-25.02 355.05-25.22Q353.32-25.43 351.52-25.43L351.52-25.43Q348.96-25.43 347.31-25.06Q345.66-24.69 344.69-24.11Q343.71-23.54 343.33-22.82Q342.95-22.11 342.95-21.41L342.95-21.41Q342.95-20.04 344.18-19.17Q345.41-18.30 347.93-18.30L347.93-18.30Q348.95-18.30 350.26-18.45Q351.58-18.59 353.04-18.77Q354.49-18.95 356.01-19.09Q357.52-19.24 358.95-19.24L358.95-19.24Q361.64-19.24 363.72-18.63Q365.80-18.03 367.21-16.90Q368.61-15.78 369.34-14.19Q370.06-12.60 370.06-10.63L370.06-10.63Q370.06-7.99 368.84-5.93Q367.62-3.87 365.36-2.45Q363.11-1.04 359.92-0.30Q356.74 0.43 352.83 0.43L352.83 0.43Q350.25 0.43 347.79 0.11Q345.33-0.21 343.08-0.81Q340.82-1.41 338.78-2.24Q336.74-3.07 335-4.06L335-4.06Z M376.86 0L376.86-30.53L383.05-30.53L383.05-22.56L402.03-22.56L402.03-30.53L408.24-30.53L408.24 0L402.03 0L402.03-17.27L383.05-17.27L383.05 0L376.86 0Z M416.13 0L416.13-30.53L422.36-30.53L422.36 0L416.13 0Z M428.46-15.35L428.46-15.35Q428.46-18.81 429.73-21.68Q431.00-24.55 433.29-26.61Q435.59-28.67 438.80-29.80Q442.01-30.94 445.92-30.94L445.92-30.94Q449.80-30.94 453.03-29.80Q456.25-28.67 458.54-26.61Q460.84-24.55 462.11-21.68Q463.38-18.81 463.38-15.35L463.38-15.35Q463.38-11.88 462.11-8.97Q460.84-6.07 458.54-3.98Q456.25-1.89 453.03-0.73Q449.80 0.43 445.92 0.43L445.92 0.43Q442.01 0.43 438.80-0.73Q435.59-1.89 433.29-3.98Q431.00-6.07 429.73-8.97Q428.46-11.88 428.46-15.35ZM434.65-15.35L434.65-15.35Q434.65-12.99 435.50-11.09Q436.35-9.20 437.86-7.86Q439.38-6.52 441.44-5.80Q443.50-5.08 445.92-5.08L445.92-5.08Q448.34-5.08 450.40-5.80Q452.46-6.52 453.96-7.86Q455.47-9.20 456.33-11.09Q457.19-12.99 457.19-15.35L457.19-15.35Q457.19-17.71 456.33-19.59Q455.47-21.46 453.96-22.76Q452.46-24.06 450.40-24.75Q448.34-25.43 445.92-25.43L445.92-25.43Q443.50-25.43 441.44-24.75Q439.38-24.06 437.86-22.76Q436.35-21.46 435.50-19.59Q434.65-17.71 434.65-15.35Z M470.21 0L470.21-30.53L476.41-30.53L495.43-20.57L495.43-30.53L501.62-30.53L501.62 0L495.43 0L495.43-14.00L476.41-23.91L476.41 0L470.21 0Z M511.78-18.69L511.78-32.40L516.80-32.40L516.80-18.69L511.78-18.69Z M525.14-4.06L528.44-9.08Q530.10-8.14 531.81-7.39Q533.52-6.64 535.35-6.12Q537.19-5.61 539.21-5.33Q541.23-5.06 543.52-5.06L543.52-5.06Q546.27-5.06 548.20-5.42Q550.14-5.78 551.36-6.42Q552.58-7.05 553.13-7.93Q553.69-8.81 553.69-9.84L553.69-9.84Q553.69-11.50 552.30-12.47Q550.92-13.44 548.03-13.44L548.03-13.44Q546.76-13.44 545.35-13.27Q543.95-13.11 542.51-12.91Q541.07-12.71 539.68-12.55Q538.28-12.38 537.05-12.38L537.05-12.38Q535-12.38 533.12-12.91Q531.23-13.44 529.78-14.49Q528.32-15.55 527.46-17.13Q526.60-18.71 526.60-20.82L526.60-20.82Q526.60-22.07 526.94-23.30Q527.29-24.53 528.04-25.65Q528.79-26.78 529.98-27.74Q531.17-28.71 532.86-29.41Q534.55-30.12 536.77-30.52Q538.98-30.92 541.82-30.92L541.82-30.92Q543.87-30.92 545.94-30.69Q548.01-30.47 549.97-30.06Q551.93-29.65 553.75-29.07Q555.57-28.50 557.13-27.79L557.13-27.79L554.41-22.79Q553.13-23.36 551.64-23.84Q550.16-24.32 548.54-24.67Q546.91-25.02 545.19-25.22Q543.46-25.43 541.66-25.43L541.66-25.43Q539.10-25.43 537.45-25.06Q535.80-24.69 534.82-24.11Q533.85-23.54 533.47-22.82Q533.09-22.11 533.09-21.41L533.09-21.41Q533.09-20.04 534.32-19.17Q535.55-18.30 538.07-18.30L538.07-18.30Q539.08-18.30 540.40-18.45Q541.72-18.59 543.17-18.77Q544.63-18.95 546.14-19.09Q547.66-19.24 549.08-19.24L549.08-19.24Q551.78-19.24 553.86-18.63Q555.94-18.03 557.34-16.90Q558.75-15.78 559.47-14.19Q560.20-12.60 560.20-10.63L560.20-10.63Q560.20-7.99 558.97-5.93Q557.75-3.87 555.50-2.45Q553.24-1.04 550.06-0.30Q546.88 0.43 542.97 0.43L542.97 0.43Q540.39 0.43 537.93 0.11Q535.47-0.21 533.21-0.81Q530.96-1.41 528.92-2.24Q526.88-3.07 525.14-4.06L525.14-4.06Z"/></g>
</svg>
</g><g opacity="1" transform="rotate(0 241.6379 -146.1322)">
<svg width="163.0207" height="236.1865" x="241.6379" y="-146.1322" version="1.1" preserveAspectRatio="none" viewBox="44.78326416015625 22.25131607055664 110.43405151367188 159.99842834472656">
  <g transform="matrix(1 0 0 1 0 0)"><g><path d="M122.855 92.045c-.324-.516-.742-.957-1.095-1.452-.498-.697-.771-1.542-1.223-2.271-.865-1.394-1.641-2.77-2.113-4.353-.441-1.479-1.302-2.744-1.839-4.18-.297-.794-.416-1.625-.928-2.327-.222-.305-.54-.516-.72-.849-.16-.295-.237-.655-.331-.974-.506-1.709-1.353-3.278-2.168-4.856a35.892 35.892 0 0 1-1.464-3.16c-.061-.665-.143-1.304-.552-1.92-.01-.195-.016-.391-.015-.585.003-.598.204-1.172.153-1.786a18.07 18.07 0 0 0-.243-1.884c-.298-1.56-1.425-3.057-2.893-3.715-.763-.342-1.609-.404-2.415-.585-.825-.185-1.617-.355-2.471-.307-.419.024-.873.261-1.159.603-.42.15-.814.493-.964.878-.101.26-.158.515-.212.771a3.161 3.161 0 0 0-.081.095c-.185.227-.299.487-.422.748-.198.423-.4.832-.637 1.235-.212.36-.39.748-.615 1.099-.257.4-.611.735-.888 1.122-.544.759-1.029 1.565-1.558 2.335-.66.961-1.228 1.892-1.548 3.022-.476 1.68-1.536 3.337-2.518 4.803-.569.851-1.099 1.684-1.379 2.677-.237.842-.461 1.807-.814 2.57-.196.425-.422.752-.547 1.215a3.26 3.26 0 0 0-.085.523 94.28 94.28 0 0 1-2.194 2.527c-.446.493-.927.956-1.31 1.503-.329.47-.61.937-.618 1.53-.004.284.051.521.144.733-.014.272.022.555.123.846.104.3.282.581.505.818-.025.514.161 1.037.584 1.356.49.369.979.738 1.468 1.109.936 1.132 1.508 2.642 2.089 3.98.634 1.461 1.385 2.863 1.995 4.333.618 1.488 1.614 2.764 2.205 4.259.576 1.458.944 2.987 1.463 4.465.576 1.64 1.884 2.724 3.685 2.077 1.424-.512 2.594-1.694 3.774-2.601.647-.497 1.185-1.092 1.788-1.636.57-.514 1.241-.916 1.825-1.418 1.204-1.034 2.503-1.833 3.809-2.728 1.406-.964 2.937-1.921 4.465-2.679.592-.294 1.249-.436 1.868-.662.798-.291 1.579-.618 2.383-.897 1.091-.379 2.304-.723 3.238-1.424 1.426-1.071 1.332-2.588.455-3.983z" data-color="1" class="icon1"></path><path d="M100.358 66.641c.475-.717.882-1.364 1.478-1.989.928-.975 1.44-2.266.912-3.564-.274-.675-1.039-.771-1.476-.193-.237.314-.263.654-.378 1.016-.131.414-.383.742-.684 1.048-.62.633-1.212 1.208-1.625 1.994-.422.804-.776 1.506-.786 2.437-.001.131.003.26.01.389-.064.174-.095.34-.093.557.003.24.086.421.211.55a.234.234 0 0 0 .004.026c.001.034.003.068.002.103a.806.806 0 0 0 .058.329c.03.227.058.456.076.687.07.888.192 1.723.19 2.615-.003 1.001.107 1.98.201 2.976.064.682.1 1.356.208 2.026-.232.1-.428.297-.467.529-.107.633-.045 1.272-.136 1.911-.096.682-.245 1.355-.335 2.041-.132.997-.257 2.081-.501 3.096-.311.578-.558 1.189-.833 1.791-.212.464-.365.937-.55 1.411-.161.412-.415.784-.368 1.245.065.634.629.972 1.215.697.558-.262.985-1.056 1.384-1.511.508-.58.838-1.174 1.124-1.88.381-.941.6-1.934.847-2.921.555-.77 1.185-1.466.957-2.453-.122-.527-.185-1.063-.252-1.601a6.667 6.667 0 0 0-.146-1.203c-.099-.446-.203-.874-.293-1.304.003-1.679 0-3.358.097-5.036.026-.439-.249-.691-.579-.758a18.45 18.45 0 0 0-.089-1.109c-.052-.458-.052-.92-.104-1.376-.021-.19-.062-.373-.102-.557a6.158 6.158 0 0 0-.105-.702c.204-.481.665-.92.928-1.317z" data-color="2" class="icon2"></path><path d="M102.393 54.349c.211-1.79.664-4.113-.421-5.714l-.221-.298a.775.775 0 0 0-.101-.163c-.065-.143-.183-.384-.184-.4-.23-.377-.613-.634-1.028-.759-.358-.108-.764-.129-1.138-.106-.342.021-.672.154-.938.283-.463.02-.874.072-1.321.336-.376.223-.73.517-1.051.813-.699.644-1.256 1.543-1.654 2.406l-.124.264a1.267 1.267 0 0 0-.176-.074 17.65 17.65 0 0 0-.841-1.385c-.619-.948-1.346-1.993-2.187-2.923-.052-.079-.104-.158-.158-.236-.808-1.173-1.764-2.186-2.972-2.941-1.323-.827-2.67-1.158-4.209-1.235a3.1 3.1 0 0 0-1.011.092c-.162.046-.5.237-.534.243-.314.05-.685-.035-1.001-.046-.411-.014-.823.001-1.234.021-1.547.076-3.105.306-4.592.748-1.419.421-2.953 1.015-4.173 1.879-.598.424-1.148.931-1.723 1.387-.547.434-.958.982-1.481 1.433-.179.155-.377.204-.596.309-.342.163-.636.393-.919.647-.537.484-1.086.942-1.639 1.407-.292.245-.523.528-.798.787-.249.234-.535.394-.799.616-.551.464-.973 1.088-1.377 1.683a31.936 31.936 0 0 0-1.466 2.382 28.143 28.143 0 0 0-.83 3.684c.476 7.535 1.985 15.093-.082 22.467.048.24.098.48.152.718.107.466.227.928.373 1.383.047.147.099.291.151.436l.031.066c.099.2.206.396.322.586l.022.035c.11.128.235.278.254.297.025.025.053.049.081.073a4.839 4.839 0 0 0 .316.19c.273.081.544.154.82.214.271-.003.542.007.814.04.234.028.455.064.668.11.134-.053.269-.106.405-.152a1.906 1.906 0 0 1 1.881.445c.193.194.315.48.456.727.199.349.122.664.245 1.114.118.432.318.813.393 1.259.065.389.075.777.205 1.152.324.931 1.109 1.905 2.063 2.212.157.051.322.08.487.093-.028.675.133 1.343.634 1.834.319.312.801.476 1.265.483.089.29.214.58.321.835.068.163.636 1.503.656 1.75l.019-.108c.046-.274.037-.195-.025.235-.005.169.003.347.043.512.056.231.407 1.007.752 1.138l.037.105c.116.315.258.621.437.904.4.632.895 1.149 1.488 1.595 1.098.826 2.315.869 3.636.863 1.418-.006 2.606-.728 3.778-1.47.514-.325.918-.751 1.308-1.212a4.376 4.376 0 0 1 1.196-1.03c1.157-.701 2.109-1.73 3.13-2.61.297-.256.584-.522.864-.795.322-.252.632-.519.919-.811.677-.691 1.304-1.419 2.012-2.08.529-.494.975-1.058 1.438-1.611.205-.135.407-.275.595-.426.46-.371.863-.757 1.373-1.058.075-.044.152-.086.228-.128.164-.061.328-.121.489-.188a19.216 19.216 0 0 0 1.392-2.449c.134-.281.501-1.359.138-.275.207-.617.453-1.217.638-1.843.326-1.101.561-2.225.733-3.36.354-3.079.287-6.186.198-9.28-.049-1.689-.143-3.387-.109-5.077.025-1.22.424-2.171 1.272-2.952a.771.771 0 0 0-.009-.026c1.006-.966 1.666-2.081 1.937-3.459.135-.683.32-1.377.299-2.079-.018-.622-.153-1.243-.275-1.856.06-.891-.071-1.787.033-2.676z" data-color="1" class="icon1"></path><path d="M101.466 47.775l.026.04c-.019-.034-.026-.044-.026-.04z" data-color="3" class="icon3"></path><path d="M72.433 97.858a.532.532 0 0 1-.007.039c.007-.004.009-.018.007-.039z" data-color="3" class="icon3"></path><path d="M89.214 56.905c-.643.006-1.266.038-1.899-.098-.535-.116-1.075-.26-1.628-.245-.502.013-.976.186-1.466.272-.499.088-.929.067-1.407.251-.465.179-.905.345-1.338.594-.287.165-.583.311-.845.515-.034.027-.421.342-.206.207-.11.069-.398.231-.509.272l-.079.03c-.05.003-.126.01-.235.024-.552.071-.933.193-1.399.533-.828.604-1.358 1.221-1.762 2.169-.045.106-.229.383-.095.303-.138.083-.401.079-.567.149-.167.071-.345.167-.511.249-.296.145-.292.122-.597.105-.656-.038-1.568-.228-1.992.415-.847-.195-1.467.918-.633 1.455.123.079.249.14.378.194.259.141.527.284.804.32.081.01.133.014.168.014.024.014.054.031.094.051.137.07.342.217.503.256-.102.065-.208.174-.284.233a7.384 7.384 0 0 0-.91.84c-.283.312-.442.771-.729 1.056-.301.299-.869.472-1.264.594-.4.124-.806.105-1.201.253-.501.188-.915.236-1.442.325-.339.057-.68.14-1.019.208-.47.094-.849-.167-1.336-.168-.826-.002-1.315.566-1.102 1.344.219.8.885 1.25 1.447 1.823.057.058.21.206.27.286l-.12-.039c-.418-.138-.877.161-.993.564-.044.151-.115.3-.204.446-.412-.099-.903.061-.996.544-.05.259-.246.68-.362.919l-.01.024c-.428.306-.36.847-.062 1.172-.058.517.49 1.057 1.027.879.676-.225 1.356-.489 1.881-.983.257-.241.48-.516.681-.804.116-.167.224-.337.346-.5.29-.186.567-.385.822-.606.396-.344.254-.974-.132-1.247a2.06 2.06 0 0 0-.153-.407c-.175-.35-.282-.776-.688-1.221a12.935 12.935 0 0 0-.346-.363c.187-.035.367-.093.564-.138.666-.153 1.397-.128 2.049-.355 1.273-.442 2.969-.534 3.788-1.804a5.696 5.696 0 0 1 1.403-1.534c.514-.39.942-.86.887-1.55-.029-.361-.197-.645-.445-.877.056-.014.112-.028.166-.048.312-.115.598-.316.907-.431.306-.114.594-.126.866-.331.583-.438.632-1.264 1.061-1.826.203-.266.678-.667.99-.793.34-.137.69.021 1.041-.096.114-.038.209-.093.306-.163-.028.02.422-.38.156-.208.278-.18.548-.34.824-.536.599-.426 1.399-.818 2.13-.909.856-.107 1.714-.429 2.575-.264.968.185 1.84.281 2.83.271 1.04-.01 1.043-1.625.002-1.615z" data-color="2" class="icon2"></path><path d="M111.226 67.949c-.237-1.264-.776-2.453-1.009-3.717-.205-1.113-.088-2.268-.145-3.393-.067-1.31-.306-2.611-.545-3.898a28.073 28.073 0 0 1-.455-3.561c-.069-1.19-.286-2.37-.294-3.562-.009-1.226.053-2.452.053-3.678 0-.56-.061-1.145-.032-1.702.018-.336.104-.666.181-.999.016-.046.032-.092.05-.137a.79.79 0 0 0-.019-.003c.032-.148.061-.297.079-.448.044-.366-.094-.718-.325-1.003.261-2.357.282-4.867-.514-7.063-.202-.557-.402-1.114-.653-1.65-.285-.609-.731-1.074-1.076-1.641-.346-.57-.537-1.171-1.019-1.658-.398-.402-.9-.676-1.298-1.08-.897-.912-1.727-1.817-2.706-2.65-1.103-.938-2.263-1.482-3.603-2.001-2.656-1.028-5.208-2.066-8.127-1.816a22.479 22.479 0 0 0-4.092.756l-.035.009a5.301 5.301 0 0 0-1.83-.546c-1.062-.128-2.15-.219-3.091.362-.961.594-2.005 1.108-2.755 1.983-.297.347-.622.764-.852 1.185-1.057-.629-2.029-1.096-3.312-1.015-1.223.077-2.65.432-3.717 1.057a4.499 4.499 0 0 0-2.091 2.979c-.115.616-.025 1.222-.068 1.832a25.73 25.73 0 0 1-1.562.753c-.015.004-.031.005-.046.009a.128.128 0 0 0-.026.01 2.005 2.005 0 0 0-1.028-.27c-.106-.001-.388-.01-.5 0a4.362 4.362 0 0 0-.164-.045 7.355 7.355 0 0 0-1.151-.183c-.937-.057-1.833.236-2.651.673-1.492.798-2.616 1.929-3.478 3.373-.192.323-.363.645-.519.97-.469.481-.903.997-1.38 1.493-.47.489-.975.955-1.509 1.373-.485.379-1.033.673-1.48 1.102-1.586 1.519-2.266 3.699-2.756 5.822a23.25 23.25 0 0 0-.215.487c-.94.425-1.885.88-2.63 1.578-1.051.985-1.391 2.225-1.542 3.607-.053.49-.141.906-.294 1.377-.217.667-.207 1.346-.205 2.04.002.69-.048 1.392.097 2.072.085.398.444 1.067.489 1.259.166.714.241 1.31.597 1.974.281.523.508 1.057.751 1.6.142.317.308.623.487.923a10.8 10.8 0 0 0-.164 1.325c-.028.502-.256.931-.315 1.433-.08.685.088 1.297.388 1.907.481.979 1.098 1.973 1.686 2.891.467.729.971 1.485 1.524 2.179.116.186.258.339.409.488l.031.035c.572 1.382 1.577 2.607 2.745 3.548 1.437 1.158 3.342 1.735 5.178 1.727 1.648-.007 3.469-.501 4.713-1.496l.415.006c1.404.016 1.754-1.608 1.052-2.435.059-.4.056-.83-.023-1.293.032-.019.065-.035.097-.054.395-.248.767-.632 1.199-.814.667-.281 1.158-.818 1.041-1.594-.104-.689-.692-1.284-1.427-1.26a4.585 4.585 0 0 1-.501-.014c.188-.258.379-.514.571-.77.646.534 1.469.788 2.305.601.679-.152 1.216-.633 1.895-.756.846-.154 1.672-.181 2.425-.647.627-.388 1.11-.96 1.622-1.479 1.097-1.113.001-3.202-1.571-2.699-.044.014-.086.022-.129.033l.405-.491c.578-.005 1.241-.223 1.772-.36.677-.175 1.346-.356 2.04-.458.892-.13 1.299-1.222 1.128-1.986-.011-.049-.025-.097-.039-.146.216-.189.431-.377.65-.541.828-.621 1.734-1.044 2.63-1.54a6.56 6.56 0 0 1 .9-.292c.72-.175 1.392-.306 2.132-.334.31-.012.614-.046.916-.088 1.26.433 2.518.874 3.794 1.259.758.229 1.521.432 2.292.612.188.044.38.082.57.126.228.297.533.513.874.618.896 1.236 3.189.755 3.093-.952-.044-.788-.329-1.356-.758-1.781a17.957 17.957 0 0 1 0-.402c.008-.567.181-1.134.229-1.699.044-.528-.023-.982.121-1.467.162-.545.083-1.094.217-1.624.139-.55.208-1.082.417-1.615.041-.105.261-.619.217-.594.062-.062.276-.206.36-.287.416-.4.631-.545 1.16-.77.521-.221 1.009-.555 1.577-.587.214-.012.577-.05.826-.008-.109-.007.179.176.258.24.86.696 1.375 1.654 1.909 2.598a1.71 1.71 0 0 0-.259.881c-.009 1.031-.086 2.083.121 3.101.091.449.287.885.351 1.338.056.392-.017.789.009 1.183.031.464.255.902.318 1.283.052.319-.014.7-.035 1.02-.027.406.004.806-.012 1.209-.013.313-.143.559-.209.877-.393 1.894 1.217 2.971 2.22 4.208.386.476.799 1.017 1.21 1.529.018.361.168.74.495 1.098.045.05.095.098.146.146.062.167.132.331.2.495.196.467.424.842.771 1.219.11.213.223.424.336.636.077.144.145.302.241.435.153.213.158.438.139-.043.084 2.173 3.453 2.189 3.391 0-.037-1.289-.035-2.572-.274-3.847z" data-color="4" class="aDFQBjvS2colors-3"></path><path d="M155.216 168.05c.026.575-.337 1.192-.84 1.464-.911.496-1.941.486-2.95.53a1.015 1.015 0 0 1-.166 0c-.17.018-.337.045-.507.065-.295.032-.594.053-.891.074-.625.042-1.203.103-1.818.218a36.45 36.45 0 0 1-4.017.552c-2.64.202-5.296.355-7.938.51-2.685.158-5.378.084-8.064.258-2.624.171-5.157.84-7.784.967-2.538.123-5.046 1.075-7.492 1.728-2.514.67-4.939 1.458-7.298 2.558a67.788 67.788 0 0 1-3.693 1.577c-.983.387-1.884.964-2.798 1.489-2.094 1.206-4.481 2.041-6.911 2.199-1.125.073-2.22-.237-3.276-.605a41.482 41.482 0 0 1-.531-.191 42.756 42.756 0 0 0-1.318-.455 28.938 28.938 0 0 0-2.227-.636c-2.374-.572-4.766-.832-7.198-.98-2.556-.157-5.139-.287-7.644-.857-1.219-.278-2.395-.712-3.618-.974-1.203-.257-2.417-.421-3.638-.554-2.585-.278-5.165-.56-7.703-1.14-1.918-.439-4.056-.969-5.511-2.385-1.836-1.789-1.537-4.195-.618-6.357a33.545 33.545 0 0 0 2.136-7.164c.152-.835.266-1.676.36-2.517a41.82 41.82 0 0 1-.026-1.117c-.015-1.833-.074-3.67.008-5.499.084-1.846.367-3.673.542-5.511.179-1.868.339-3.73.57-5.593.218-1.77.005-3.72.533-5.43.231-.743.549-1.403.689-2.175a5.26 5.26 0 0 1 .759-1.959c.46-.712 1.009-1.348 1.405-2.102a13.78 13.78 0 0 1 1.24-1.999c1.027-1.363 2.018-2.682 3.354-3.761 1.295-1.048 2.685-1.997 4.109-2.9a137.076 137.076 0 0 1 3.212-1.959c.497-.297.993-.593 1.484-.89 1.324-.798 2.8-1.227 4.096-2.08 1.421-.936 3.018-1.468 4.494-2.306 1.516-.862 3.131-1.544 4.77-2.135.794-.286 1.484-.564 2.193-1.03.605-.397 1.192-.807 1.842-1.129.63-.31 1.248-.644 1.863-.987.003-.042.006-.084.011-.126.006-.078.014-.157.024-.236.042-.325.134-.612.21-.925.01-.037.018-.073.024-.11l.015-.076c.05-.317.045-.646.029-.975-.016-.35-.044-.704-.027-1.043.039-.802.223-1.586.373-2.372.333-1.745.035-4.184 1.022-5.785.141-.667.352-1.301.672-1.878.426-1.484 1.056-2.906 2.419-3.78.928-.596 1.913-.635 2.981-.61.911.021 1.789-.105 2.683-.262 1.951-.342 3.728-1.267 5.666-1.67a82.278 82.278 0 0 1 6.357-1.061c1.091-.137 2.189-.174 3.287-.236.987-.055 1.957-.224 2.939-.294.922-.065 1.828.137 2.729-.115.948-.263 1.876-.428 2.811-.021.128.055.244.121.358.191.305.055.605.216.869.515 1.59 1.813 3.391 3.108 5.419 4.385 1.045.659 2.017 1.4 2.998 2.147.87.662 1.849 1.247 2.312 2.338.019.04.035.082.052.126.121.325.087.696-.048 1.037.082.055.163.111.245.165.966.649 1.954 1.237 3.045 1.682 1.626.662 2.868 1.726 3.99 3.066 1.035 1.234 2.194 2.611 2.921 4.056.363.723.615 1.485.814 2.267.208.814.522 1.582.757 2.385.223.761.25 1.544.384 2.319.153.87.413 1.684.51 2.572.389 3.555 1.657 6.88 2.969 10.188 1.331 3.355 1.799 7.029 2.227 10.594.431 3.593.728 7.209 1.053 10.815.166 1.842.166 3.69.308 5.532.076.98.236 1.952.287 2.934.045.848.008 1.697.057 2.545.052.899.307 1.744.459 2.629.16.925.15 1.829.136 2.764-.032 1.845.385 3.671.469 5.511z" data-color="5" class="aDFQBjvS2colors-4"></path><path d="M99.069 58.842c-4.151 0-4.158 6.451 0 6.451 4.151 0 4.158-6.451 0-6.451z" data-color="6" class="aDFQBjvS2colors-5"></path><path d="M88.773 181.635a41.482 41.482 0 0 1-.531-.191 42.756 42.756 0 0 0-1.318-.455c.019-.044.042-.086.065-.128a21.007 21.007 0 0 1-.003-.355c-.036-.636-.09-1.259-.015-1.886.011-.605.123-1.169.241-1.768.032-.163.055-.328.074-.491a5.666 5.666 0 0 0-.058-.756 18.303 18.303 0 0 1-.221-2.592 75.126 75.126 0 0 0-.011-.948c-.039-.507-.053-1.016-.131-1.524a17.02 17.02 0 0 1-.17-2.168c-.015-.066-.027-.131-.045-.197-.05-.192-.024-.392-.068-.572-.045-.181-.194-.32-.226-.522a36.54 36.54 0 0 1-.247-1.852c-.203-.66-.276-1.326-.355-2.015a73.127 73.127 0 0 0-.788-5.33c-.292-1.532-1.059-2.902-1.271-4.448a49.44 49.44 0 0 0-.237-1.598c-.686-.877-.946-2.046-1.318-3.078-.631-1.758-1.594-3.339-2.407-5.009-.384-.79-.576-1.657-.98-2.435-.107-.207-.216-.41-.326-.614a4.567 4.567 0 0 1-.77-.751 5.905 5.905 0 0 1-.546-.757c-.418-.672-.522-1.469-.677-2.223-.152-.738-.502-1.427-.664-2.165-.195-.886-.187-1.799-.471-2.669a24.823 24.823 0 0 0-.111-.323 4.155 4.155 0 0 1-.095-.241c-.008-.023-.01-.042-.015-.063-.16-.42-.339-.836-.528-1.208-.044-.086-.058-.145-.035-.121-.057-.079-.124-.153-.171-.244-.207-.391-.358-.874-.518-1.292-.712-1.871-1.766-3.525-2.79-5.244a.504.504 0 0 1-.063-.168 12.276 12.276 0 0 0-1.35-1.358c-1.222-1.043-2.377-1.637-3.949-1.959-.452-.092-.852-.291-1.225-.541a137.076 137.076 0 0 1 3.212-1.959c.635.555 1.248 1.137 1.863 1.716.586.555 1.248 1.019 1.834 1.569.551.517.911 1.169 1.259 1.831.383.728.623 1.642 1.137 2.256.397.476.538 1.109.744 1.692.076.218.129.45.187.681.226.413.449.828.672 1.238.087.16.086.31.029.431.405.707.848 1.397 1.174 2.138.079.184.079.36.147.539.095.254.202.292.357.491.325.413.534.928.846 1.36.331.46.52.961.79 1.455.203.375.442.681.53 1.108.099.476.113.943.284 1.405.21.565.462 1.103.757 1.626.572 1.012 1.237 1.917 1.884 2.881.654.974 1.143 2.033 1.536 3.137.408 1.146.625 2.33.836 3.512.14.413.276.83.402 1.248.294.987.601 2.022.681 3.058l.002.002c.494 1.187.586 2.401.912 3.63.173.654.376 1.303.452 1.978.063.56-.027 1.119.015 1.678.048.633.262 1.247.35 1.875.094.667.153 1.339.2 2.01.069 1.003.097 2.007.108 3.013.018.123.034.245.04.373.016.333.019.66.023.985.098.407.163.848.215 1.258.092.722.148 1.494.157 2.222.003.215-.011.428-.023.641.094.722.176 1.442.215 2.167.053.212.118.421.153.636.186 1.175.208 2.352.305 3.523.078.949.041 1.903.039 2.855z" data-color="2" class="icon2"></path><path d="M134.584 96.031c.136-.341.17-.712.048-1.037a1.186 1.186 0 0 0-.052-.126c-.22.149-.436.308-.659.405-.027.011-.055.019-.082.029l-.123.032c-.342.069-.731-.002-1.067.01-.407.016-.799.113-1.2.176-.446.073-.867.118-1.284.299-.534.232-.998.547-1.553.741-1.941.678-4.009 1.001-5.911 1.778-.023.01-.045.016-.068.026-.689.076-1.381.09-2.096.09-.857 0-1.686.15-2.533.202a1.18 1.18 0 0 0-.497-.124c-.685-.003-1.326.405-1.967.599-.885.27-1.76.507-2.596.914-.741.362-1.334 1.109-2.128 1.269-.41.082-.812.103-1.227.145l-.029.005a4.003 4.003 0 0 0-.513.069.458.458 0 0 0-.224.132 2.546 2.546 0 0 1-.613.15 7.658 7.658 0 0 1-.586.027c-.597-.136-1.25-.128-1.889-.098-1.108-.095-2.217-.189-3.305.074-.801.194-1.595.347-2.401.536-1.014.237-2.018.572-3.058.651-1.077.081-2.044.467-3.097.667-1.245.236-2.519.363-3.773.544l-1.385.2c.016.329.021.659-.029.975l.092-.013.171-.024a5.983 5.983 0 0 0-.268.108l-.01.005a1.082 1.082 0 0 1-.024.11c-.076.313-.168.601-.21.925-.01.079-.018.158-.024.236.168-.095.333-.2.475-.266.46-.213.933-.381 1.426-.52 1.142-.323 2.206-.741 3.407-.807a16.783 16.783 0 0 0 3.807-.68c.249-.074.496-.208.741-.271.16-.042.329-.019.497-.048.467-.079.891-.236 1.356-.376.549-.168 1.129-.236 1.687-.358.601-.131 1.175-.407 1.805-.45 1.133-.079 2.238-.078 3.357.098.381.06.788-.008 1.164.076.116.09.228.195.326.323.105.134.287.163.451.123.186.123.386.195.656.079.271-.118.329-.383.546-.556.263-.21.618-.215.928-.26.266-.039.56-.036.822-.094.086-.018.336-.118.367-.137.002 0 .003 0 .003-.002.128-.037.307-.087.497-.153.289-.024.575-.078.857-.176 1.075-.371 1.789-1.445 2.872-1.762.462-.134.94-.078 1.408-.216.722-.215 1.393-.15 2.144-.131 1.479.036 3.053.171 4.524-.011 1.247-.155 2.424-.909 3.564-1.39.584-.247 1.109-.496 1.629-.851.46-.316 1.182-.494 1.7-.727.119-.053.239-.1.36-.147.284-.056.575-.079.844-.191.132-.055.255-.116.378-.178.609-.153 1.224-.287 1.818-.484-.083-.053-.164-.109-.246-.164z" data-color="2" class="icon2"></path><path d="M99.069 60.455c-1.729 0-1.732 2.688 0 2.688 1.729 0 1.732-2.688 0-2.688z" data-color="2" class="icon2"></path></g></g>
</svg>
</g></svg></svg>